<?xml version="1.0" standalone="no"?><!DOCTYPE svg PUBLIC "-//W3C//DTD SVG 1.1//EN" "http://www.w3.org/Graphics/SVG/1.1/DTD/svg11.dtd"><svg xmlns:xlink="http://www.w3.org/1999/xlink" version="1.1" style="font-family:'unica one', sans-serif;font-size:12px;" xmlns="http://www.w3.org/2000/svg" width="600" height="400"><desc>Created with Highcharts 4.2.7</desc><defs><clipPath id="highcharts-108"><rect x="1" y="1" width="530" height="287"></rect></clipPath></defs><rect x="1" y="1" width="598" height="398" fill="none" class=" highcharts-background"></rect><rect x="58" y="36" width="532" height="289" fill="#ffffff"></rect><path fill="rgb(255, 255, 255)" fill-opacity=" .5" d="M 58 325.5 L 590 325.5 590 253.5 58 253.5"></path><path fill="rgb(255, 255, 255)" fill-opacity=" .5" d="M 58 181.5 L 590 181.5 590 108.5 58 108.5"></path><g class="highcharts-grid"></g><g class="highcharts-grid"><path fill="none" d="M 58 325.5 L 590 325.5" stroke="#C0C0C0" stroke-width="1" opacity="1"></path><path fill="none" d="M 58 253.5 L 590 253.5" stroke="#C0C0C0" stroke-width="1" opacity="1"></path><path fill="none" d="M 58 181.5 L 590 181.5" stroke="#C0C0C0" stroke-width="1" opacity="1"></path><path fill="none" d="M 58 108.5 L 590 108.5" stroke="#C0C0C0" stroke-width="1" opacity="1"></path><path fill="none" d="M 58 35.5 L 590 35.5" stroke="#C0C0C0" stroke-width="1" opacity="1"></path></g><rect x="58" y="36" width="532" height="289" stroke="#026FC1" stroke-width="2" fill="none"></rect><g class="highcharts-axis"><path fill="none" d="M 190.5 325 L 190.5 335" stroke="#C0D0E0" stroke-width="1" opacity="1"></path><path fill="none" d="M 323.5 325 L 323.5 335" stroke="#C0D0E0" stroke-width="1" opacity="1"></path><path fill="none" d="M 456.5 325 L 456.5 335" stroke="#C0D0E0" stroke-width="1" opacity="1"></path><path fill="none" d="M 590.5 325 L 590.5 335" stroke="#C0D0E0" stroke-width="1" opacity="1"></path><path fill="none" d="M 57.5 325 L 57.5 335" stroke="#C0D0E0" stroke-width="1" opacity="1"></path><path fill="none" d="M 58 325.5 L 590 325.5" stroke="#C0D0E0" stroke-width="1"></path></g><g class="highcharts-axis"><path fill="none" d="M 58 325.5 L 48 325.5" stroke="#C0D0E0" stroke-width="1" opacity="1"></path><path fill="none" d="M 58 253.5 L 48 253.5" stroke="#C0D0E0" stroke-width="1" opacity="1"></path><path fill="none" d="M 58 181.5 L 48 181.5" stroke="#C0D0E0" stroke-width="1" opacity="1"></path><path fill="none" d="M 58 108.5 L 48 108.5" stroke="#C0D0E0" stroke-width="1" opacity="1"></path><path fill="none" d="M 58 35.5 L 48 35.5" stroke="#C0D0E0" stroke-width="1" opacity="1"></path><text x="21" text-anchor="middle" transform="translate(0,0) rotate(270 21 180.5)" class=" highcharts-yaxis-title" style="color:#000000;font-size:10px;font-family:'arial', sans-serif;text-transform:none;font-weight:normal;fill:#000000;" y="180.5"><tspan>Amount of M&amp;Ms</tspan></text></g><g class="highcharts-series-group"><g class="highcharts-series highcharts-series-0" transform="translate(58,36) scale(1 1)" clip-path="url(#highcharts-108)"><rect x="34.5" y="72.5" width="64" height="217" stroke="#FFFFFF" stroke-width="1" fill="#ff80eb" rx="0" ry="0"></rect><rect x="167.5" y="123.5" width="64" height="166" stroke="#FFFFFF" stroke-width="1" fill="#ff7979" rx="0" ry="0"></rect><rect x="300.5" y="253.5" width="64" height="36" stroke="#FFFFFF" stroke-width="1" fill="#ffc77d" rx="0" ry="0"></rect><rect x="433.5" y="275.5" width="64" height="14" stroke="#FFFFFF" stroke-width="1" fill="#ecff7d" rx="0" ry="0"></rect></g><g class="highcharts-markers highcharts-series-0" transform="translate(58,36) scale(1 1)" clip-path="none"></g><g class="highcharts-series highcharts-series-1" transform="translate(58,36) scale(1 1)" clip-path="url(#highcharts-108)"></g><g class="highcharts-markers highcharts-series-1" transform="translate(58,36) scale(1 1)" clip-path="none"></g></g><text x="300" text-anchor="middle" class="highcharts-title" style="color:#000000;font-size:10px;font-family:'arial', sans-serif;text-transform:none;font-weight:bold;fill:#000000;width:536px;" y="17"><tspan>Total Defect Amount of Analyzed M&amp;Ms</tspan></text><g class="highcharts-data-labels highcharts-series-0" transform="translate(58,36) scale(1 1)" opacity="1"><g style="cursor:pointer;" transform="translate(56,52)"><text x="5" style="font-size:10px;font-weight:bold;font-family:'arial', sans-serif;color:#a0a0a0;text-shadow:0 0 6px #000000, 0 0 3px #000000;fill:#a0a0a0;text-rendering:geometricprecision;" y="15"><tspan>30</tspan></text></g><g style="cursor:pointer;" transform="translate(189,103)"><text x="5" style="font-size:10px;font-weight:bold;font-family:'arial', sans-serif;color:#a0a0a0;text-shadow:0 0 6px #000000, 0 0 3px #000000;fill:#a0a0a0;text-rendering:geometricprecision;" y="15"><tspan>23</tspan></text></g><g style="cursor:pointer;" transform="translate(325,233)"><text x="5" style="font-size:10px;font-weight:bold;font-family:'arial', sans-serif;color:#a0a0a0;text-shadow:0 0 6px #000000, 0 0 3px #000000;fill:#a0a0a0;text-rendering:geometricprecision;" y="15"><tspan>5</tspan></text></g><g style="cursor:pointer;" transform="translate(458,255)"><text x="5" style="font-size:10px;font-weight:bold;font-family:'arial', sans-serif;color:#a0a0a0;text-shadow:0 0 6px #000000, 0 0 3px #000000;fill:#a0a0a0;text-rendering:geometricprecision;" y="15"><tspan>2</tspan></text></g></g><g class="highcharts-data-labels highcharts-series-1" transform="translate(58,36) scale(1 1)" opacity="1"></g><g class="highcharts-legend" transform="translate(260,356)"><g><g><g class="highcharts-legend-item" transform="translate(8,3)"><text x="21" style="color:#333;font-size:9pt;font-weight:normal;cursor:pointer;font-family:'lucida grande','lucida sans unicode',arial,helvetica,sans-serif;text-transform:none;fill:#333;" text-anchor="start" y="15">Defects</text><rect x="0" y="4" width="16" height="12" fill="#CCC"></rect></g></g></g></g><g class="highcharts-axis-labels highcharts-xaxis-labels"><text x="124.5" style="color:#000000;cursor:default;font-size:10px;font-family:'arial', sans-serif;text-transform:none;font-weight:normal;fill:#000000;" text-anchor="middle" transform="translate(0,0)" y="343" opacity="1"><tspan>Total defect amount</tspan></text><text x="257.5" style="color:#000000;cursor:default;font-size:10px;font-family:'arial', sans-serif;text-transform:none;font-weight:normal;fill:#000000;" text-anchor="middle" transform="translate(0,0)" y="343" opacity="1"><tspan>Logo defects</tspan></text><text x="390.5" style="color:#000000;cursor:default;font-size:10px;font-family:'arial', sans-serif;text-transform:none;font-weight:normal;fill:#000000;" text-anchor="middle" transform="translate(0,0)" y="343" opacity="1">Disfigured</text><text x="523.5" style="color:#000000;cursor:default;font-size:10px;font-family:'arial', sans-serif;text-transform:none;font-weight:normal;fill:#000000;" text-anchor="middle" transform="translate(0,0)" y="343" opacity="1">Fractures</text></g><g class="highcharts-axis-labels highcharts-yaxis-labels"><text x="43" style="color:#000000;cursor:default;font-size:10px;font-family:'arial', sans-serif;text-transform:none;font-weight:normal;fill:#000000;width:188px;text-overflow:clip;" text-anchor="end" transform="translate(0,0)" y="330" opacity="1"><tspan>0</tspan></text><text x="43" style="color:#000000;cursor:default;font-size:10px;font-family:'arial', sans-serif;text-transform:none;font-weight:normal;fill:#000000;width:188px;text-overflow:clip;" text-anchor="end" transform="translate(0,0)" y="257" opacity="1"><tspan>10</tspan></text><text x="43" style="color:#000000;cursor:default;font-size:10px;font-family:'arial', sans-serif;text-transform:none;font-weight:normal;fill:#000000;width:188px;text-overflow:clip;" text-anchor="end" transform="translate(0,0)" y="185" opacity="1"><tspan>20</tspan></text><text x="43" style="color:#000000;cursor:default;font-size:10px;font-family:'arial', sans-serif;text-transform:none;font-weight:normal;fill:#000000;width:188px;text-overflow:clip;" text-anchor="end" transform="translate(0,0)" y="113" opacity="1"><tspan>30</tspan></text><text x="43" style="color:#000000;cursor:default;font-size:10px;font-family:'arial', sans-serif;text-transform:none;font-weight:normal;fill:#000000;width:188px;text-overflow:clip;" text-anchor="end" transform="translate(0,0)" y="41" opacity="1"><tspan>40</tspan></text></g><g class="highcharts-tooltip" display="none" style="cursor:default;padding:0;pointer-events:none;white-space:nowrap;" transform="translate(0,0)"><path fill="rgb(255, 255, 255)" fill-opacity=" 0.85" d="M 3.5 0.5 L 13.5 0.5 C 16.5 0.5 16.5 0.5 16.5 3.5 L 16.5 13.5 C 16.5 16.5 16.5 16.5 13.5 16.5 L 3.5 16.5 C 0.5 16.5 0.5 16.5 0.5 13.5 L 0.5 3.5 C 0.5 0.5 0.5 0.5 3.5 0.5"></path><text x="8" style="font-size:12px;color:#000000;fill:#000000;" y="20"></text></g><text x="590" text-anchor="end" style="cursor:pointer;color:#666;font-size:9px;fill:#666;" y="395">meta-chart.com</text></svg>